<?xml version="1.0" encoding="iso-8859-1"?>
<!-- Generator: Adobe Illustrator 17.1.0, SVG Export Plug-In . SVG Version: 6.00 Build 0)  -->
<!DOCTYPE svg PUBLIC "-//W3C//DTD SVG 1.1//EN" "http://www.w3.org/Graphics/SVG/1.1/DTD/svg11.dtd">
<svg version="1.1" id="Capa_1" xmlns="http://www.w3.org/2000/svg" xmlns:xlink="http://www.w3.org/1999/xlink" x="0px" y="0px"
	 viewBox="0 0 298 298" style="enable-background:new 0 0 298 298;" xml:space="preserve">
<g>
	<path style="fill:#CC7B05;" d="M200.227,127H97.772l5.338,70h16.839c3.339-12.925,15.098-22.5,29.051-22.5
		s25.712,9.575,29.051,22.5h16.787c0.018-0.012,0.036-0.023,0.055-0.035L200.227,127z"/>
	<path style="fill:#603D13;" d="M188.408,282l5.262-69h-15.903c-3.676,12.414-15.177,21.5-28.767,21.5s-25.091-9.086-28.767-21.5
		H104.33l5.262,69H188.408z"/>
	<path style="fill:#FFFFFF;" d="M199.5,74c0-3.859-3.141-7-7-7h-87c-3.859,0-7,3.141-7,7s3.141,7,7,7h87
		C196.359,81,199.5,77.859,199.5,74z"/>
	<path style="fill:#FFFFFF;" d="M212.5,97h-20h-87h-20c-3.859,0-7,3.141-7,7s3.141,7,7,7h127c3.859,0,7-3.141,7-7
		S216.359,97,212.5,97z"/>
	<path d="M235.5,104c0-12.049-9.314-21.957-21.121-22.917c0.725-2.232,1.121-4.612,1.121-7.083c0-12.683-10.317-23-23-23h-35.833V8
		c0-4.418-3.582-8-8-8c-4.418,0-8,3.582-8,8v43H105.5c-12.683,0-23,10.317-23,23c0,2.471,0.396,4.851,1.121,7.083
		C71.814,82.043,62.5,91.951,62.5,104c0,11.389,8.32,20.863,19.201,22.681l12.501,163.928c0.317,4.17,3.794,7.392,7.977,7.392
		h93.643c4.183,0,7.659-3.222,7.977-7.392l12.501-163.928C227.18,124.863,235.5,115.389,235.5,104z M212.5,111h-127
		c-3.859,0-7-3.141-7-7s3.141-7,7-7h20h87h20c3.859,0,7,3.141,7,7S216.359,111,212.5,111z M149,190.5c7.72,0,14,6.28,14,14
		s-6.28,14-14,14s-14-6.28-14-14S141.28,190.5,149,190.5z M120.233,213c3.676,12.414,15.177,21.5,28.767,21.5
		s25.091-9.086,28.767-21.5h15.903l-5.262,69h-78.816l-5.262-69H120.233z M194.838,197h-16.787
		c-3.339-12.925-15.098-22.5-29.051-22.5s-25.712,9.575-29.051,22.5H103.11l-5.338-70h102.455l-5.335,69.965L194.89,197H194.838z
		 M98.5,74c0-3.859,3.141-7,7-7h87c3.859,0,7,3.141,7,7s-3.141,7-7,7h-87C101.641,81,98.5,77.859,98.5,74z"/>
	<path style="fill:#FFB929;" d="M135,204.5c0,7.72,6.28,14,14,14s14-6.28,14-14s-6.28-14-14-14S135,196.78,135,204.5z"/>
</g>
<g>
</g>
<g>
</g>
<g>
</g>
<g>
</g>
<g>
</g>
<g>
</g>
<g>
</g>
<g>
</g>
<g>
</g>
<g>
</g>
<g>
</g>
<g>
</g>
<g>
</g>
<g>
</g>
<g>
</g>
</svg>
