<svg xmlns="http://www.w3.org/2000/svg" xmlns:xlink="http://www.w3.org/1999/xlink" preserveAspectRatio="xMidYMid meet" version="1.1" viewBox="156.9 118.0 111.4 189.2" zoomAndPan="magnify" style="fill: rgb(0, 0, 0);">
 <g id="__id374_s6f1sb8vai">
  <g id="__id375_s6f1sb8vai"><path d="m237.79 296.55c0 5.88-11.15 10.64-24.91 10.64-13.75 0-24.9-4.76-24.9-10.64 0-5.87 11.15-10.64 24.9-10.64 13.76 0 24.91 4.77 24.91 10.64" style="fill: rgb(100, 61, 22);"></path></g>
  <g id="__id376_s6f1sb8vai"><path d="m237.28 293.98c0 5.87-11.04 10.63-24.65 10.63s-24.65-4.76-24.65-10.63c0-5.88 11.04-10.64 24.65-10.64s24.65 4.76 24.65 10.64" style="fill: rgb(230, 230, 230);"></path></g>
  <g id="__id377_s6f1sb8vai"><path d="m213.58 118.01c-0.33 0-0.65 0.02-0.98 0.03-0.33-0.01-0.65-0.03-0.98-0.03-30.23 0-54.74 25.56-54.74 57.08 0 5.37 2.08 17.81 5.21 22.97l50.51 95.92 50.51-95.92c3.13-5.16 5.21-17.6 5.21-22.97 0-31.52-24.5-57.08-54.74-57.08" style="fill: rgb(100, 61, 22);"></path></g>
  <g id="__id378_s6f1sb8vai"><path d="m242.84 168.73c0 16.7-13.54 30.23-30.24 30.23s-30.24-13.53-30.24-30.23 13.54-30.24 30.24-30.24 30.24 13.54 30.24 30.24" style="fill: rgb(255, 255, 255);"></path></g>
 </g>
</svg>